<?xml version="1.0" standalone="no"?>
<!DOCTYPE svg PUBLIC "-//W3C//DTD SVG 20010904//EN"
 "http://www.w3.org/TR/2001/REC-SVG-20010904/DTD/svg10.dtd">
<svg version="1.0" xmlns="http://www.w3.org/2000/svg"
 width="286.000000pt" height="286.000000pt" viewBox="0 0 286.000000 286.000000"
 preserveAspectRatio="xMidYMid meet">
<metadata>
Created by potrace 1.11, written by Peter Selinger 2001-2013
</metadata>
<g transform="translate(0.000000,286.000000) scale(0.100000,-0.100000)"
fill="#000000" stroke="none">
<path d="M1250 2834 c-47 -7 -99 -16 -117 -19 -59 -10 -217 -66 -308 -109
-103 -49 -254 -147 -314 -204 -23 -22 -41 -37 -41 -34 0 11 -122 -125 -173
-193 -227 -299 -322 -646 -282 -1030 7 -77 54 -267 80 -330 104 -249 239 -436
425 -589 153 -125 394 -242 580 -281 116 -24 133 -26 256 -32 395 -18 785 132
1068 413 135 133 200 224 285 399 58 117 93 219 115 330 25 127 28 163 28 295
1 463 -230 894 -622 1160 -68 46 -250 140 -272 140 -8 0 -18 4 -24 9 -10 9
-181 57 -234 66 -19 3 -48 8 -65 11 -66 12 -303 11 -385 -2z m365 -148 c133
-17 259 -57 400 -128 386 -194 647 -580 681 -1009 l6 -75 -66 -32 c-86 -41
-110 -47 -144 -33 -53 22 -62 49 -137 401 -25 118 -47 226 -50 240 -21 118
-101 312 -151 366 -94 102 -188 86 -431 -76 -102 -69 -361 -264 -415 -312 -13
-13 -46 -41 -74 -63 -27 -21 -51 -42 -54 -45 -3 -3 -36 -32 -74 -65 -38 -33
-83 -72 -100 -88 -35 -31 -61 -30 -130 5 -62 31 -72 30 -117 -15 -61 -61 -92
-112 -84 -136 3 -12 27 -33 52 -48 l45 -26 -33 -31 c-93 -87 -231 -211 -372
-336 -28 -25 -74 -69 -102 -98 l-51 -53 -22 93 c-11 51 -24 119 -28 151 -11
102 -6 284 11 366 33 162 80 288 156 422 42 72 132 185 213 264 250 246 574
376 916 369 63 -2 133 -5 155 -8z m270 -432 c49 -18 93 -80 124 -173 18 -55
25 -85 46 -206 2 -16 7 -41 10 -55 6 -26 10 -54 20 -135 5 -42 27 -177 50
-319 14 -80 37 -137 73 -177 35 -38 43 -42 86 -42 61 0 196 67 311 153 44 33
84 60 88 60 21 0 -27 -246 -70 -360 -113 -301 -345 -560 -623 -697 -123 -60
-147 -70 -234 -93 -256 -71 -566 -59 -791 29 -75 30 -180 83 -245 125 -107 69
-183 135 -284 250 -40 45 -106 145 -145 217 l-41 76 49 7 c78 10 189 97 296
231 22 28 42 52 45 55 3 3 39 48 80 100 41 52 77 97 80 100 3 3 17 21 30 40
48 68 62 80 89 75 186 -36 362 -38 561 -8 90 13 135 23 219 45 178 46 296 102
289 136 -4 19 -21 19 -93 -2 -40 -12 -102 -14 -300 -11 -254 4 -305 7 -430 27
-38 7 -73 11 -77 10 -20 -5 -2 18 61 78 153 145 180 170 281 251 169 137 270
200 347 218 54 13 53 13 98 -5z"/>
</g>
</svg>
